<?xml version="1.0" encoding="utf-8"?>
<!-- Generator: Adobe Illustrator 23.0.0, SVG Export Plug-In . SVG Version: 6.00 Build 0)  -->
<svg version="1.1" id="Layer_1" xmlns="http://www.w3.org/2000/svg" xmlns:xlink="http://www.w3.org/1999/xlink" x="0px" y="0px"
	 viewBox="0 0 500 500" style="enable-background:new 0 0 500 500;" xml:space="preserve">
<style type="text/css">
	.st0{fill:#83E1E5;}
	.st1{fill:#AAB1BA;}
	.st2{fill:#FDDF7F;}
	.st3{fill:#ECF4F7;}
	.st4{fill:#1C1D21;}
</style>
<g>
	<path class="st0" d="M337.218,249.65h-31.697c-7.349,4.756-15.349,8.581-23.829,11.344l3.793,5.747
		c2.724,4.129-0.237,9.628-5.182,9.628h-18.188v45.423H237.88v-45.423h-18.183c-4.946,0-7.906-5.499-5.182-9.628l3.793-5.747
		c-8.48-2.763-16.48-6.588-23.829-11.344h-31.697c-33.614,0-60.864,27.295-60.864,60.964V495h296.163V310.614
		C398.081,276.945,370.832,249.65,337.218,249.65z"/>
</g>
<g>
	<g>
		<rect x="101.919" y="346.486" class="st2" width="52.805" height="148.514"/>
	</g>
</g>
<g>
	<g>
		<rect x="345.276" y="346.486" class="st2" width="52.805" height="148.514"/>
	</g>
</g>
<g>
	<path class="st3" d="M280.302,50.423H262.12V5h-24.234v45.423h-18.188c-4.946,0-7.906,5.499-5.182,9.628l30.807,46.685
		c2.215,3.357,7.139,3.357,9.354,0l30.808-46.685C288.208,55.922,285.248,50.423,280.302,50.423z"/>
</g>
<g>
	<path class="st3" d="M219.698,276.369h18.183v45.423h24.234v-45.423h18.188c4.946,0,7.906-5.499,5.182-9.628l-30.807-46.685
		c-2.215-3.357-7.139-3.357-9.354,0l-30.808,46.685C211.792,270.87,214.752,276.369,219.698,276.369z"/>
</g>
<g>
	<path class="st3" d="M362.973,193.698v-18.183h45.423v-24.234h-45.423v-18.188c0-4.946-5.499-7.906-9.628-5.182l-46.685,30.807
		c-3.357,2.215-3.357,7.139,0,9.354l46.685,30.808C357.474,201.604,362.973,198.644,362.973,193.698z"/>
</g>
<g>
	<path class="st3" d="M137.027,133.094v18.183H91.604v24.234h45.423v18.188c0,4.946,5.499,7.906,9.628,5.182l46.685-30.807
		c3.357-2.215,3.357-7.139,0-9.354l-46.685-30.808C142.526,125.188,137.027,128.148,137.027,133.094z"/>
</g>
<g>
	<path class="st2" d="M306.661,168.072c-3.357-2.214-3.357-7.139,0-9.354l40.827-26.941c-10.078-31.197-34.663-55.852-65.791-65.987
		l-27.02,40.945c-2.215,3.357-7.139,3.357-9.354,0l-27.02-40.945c-31.128,10.136-55.713,34.79-65.791,65.987l40.827,26.941
		c3.357,2.215,3.357,7.14,0,9.354l-40.827,26.941c10.078,31.197,34.663,55.852,65.791,65.987l27.02-40.945
		c2.215-3.357,7.139-3.357,9.354,0l27.02,40.945c31.128-10.136,55.712-34.79,65.791-65.987L306.661,168.072z"/>
</g>
<path class="st4" d="M106.852,86.185c0-2.762,2.239-5,5-5h6.534v-6.535c0-2.762,2.239-5,5-5s5,2.238,5,5v6.535h6.535
	c2.761,0,5,2.238,5,5s-2.239,5-5,5h-6.535v6.534c0,2.762-2.239,5-5,5s-5-2.238-5-5v-6.534h-6.534
	C109.09,91.185,106.852,88.946,106.852,86.185z M365.08,91.185h6.534v6.534c0,2.762,2.238,5,5,5s5-2.238,5-5v-6.534h6.534
	c2.762,0,5-2.238,5-5s-2.238-5-5-5h-6.534v-6.535c0-2.762-2.238-5-5-5s-5,2.238-5,5v6.535h-6.534c-2.762,0-5,2.238-5,5
	S362.318,91.185,365.08,91.185z M142.027,175.51v18.188c0,0.597,0.346,0.908,0.636,1.064c0.29,0.157,0.74,0.273,1.238-0.056
	l46.685-30.807c0.068-0.045,0.272-0.18,0.272-0.505c0-0.324-0.204-0.459-0.271-0.503l-40.827-26.942
	c-0.001-0.001-0.002-0.002-0.003-0.003l-5.854-3.863c-0.499-0.326-0.949-0.21-1.238-0.055c-0.29,0.156-0.636,0.468-0.636,1.064
	v18.183c0,2.762-2.239,5-5,5H91.604c-2.761,0-5-2.238-5-5s2.239-5,5-5h40.423v-13.183c0-4.13,2.259-7.912,5.896-9.87
	c3.636-1.957,8.038-1.761,11.486,0.514l0.543,0.358c10.884-27.767,32.969-49.917,60.679-60.854l-0.288-0.437
	c-2.275-3.448-2.472-7.85-0.515-11.486s5.74-5.896,9.87-5.896h13.188V5c0-2.762,2.239-5,5-5s5,2.238,5,5v45.423c0,2.762-2.239,5-5,5
	h-18.188c-0.597,0-0.909,0.346-1.064,0.636c-0.156,0.29-0.273,0.74,0.056,1.238l3.786,5.737c0,0.001,0.001,0.001,0.002,0.002
	l27.02,40.945c0.044,0.067,0.179,0.271,0.503,0.271c0.325,0,0.459-0.204,0.503-0.271l30.809-46.686
	c0.328-0.498,0.211-0.948,0.055-1.238c-0.155-0.29-0.467-0.636-1.064-0.636h-18.183c-2.762,0-5-2.238-5-5V5c0-2.762,2.238-5,5-5
	s5,2.238,5,5v40.423h13.183c4.131,0,7.912,2.259,9.87,5.896s1.761,8.037-0.514,11.485l-0.289,0.438
	c27.71,10.938,49.796,33.087,60.679,60.854l0.542-0.357c3.448-2.275,7.85-2.471,11.486-0.515c3.637,1.958,5.896,5.74,5.896,9.87
	v13.188h40.423c2.762,0,5,2.238,5,5s-2.238,5-5,5h-45.423c-2.762,0-5-2.238-5-5v-18.188c0-0.597-0.346-0.908-0.636-1.064
	c-0.291-0.156-0.74-0.273-1.239,0.056l-5.852,3.862c-0.002,0.001-0.003,0.002-0.004,0.003l-40.827,26.941
	c-0.017,0.011-0.042,0.028-0.071,0.052c-0.086,0.072-0.201,0.209-0.2,0.452c0,0.243,0.114,0.379,0.2,0.451
	c0.028,0.023,0.054,0.04,0.071,0.052l46.686,30.809c0.5,0.329,0.949,0.213,1.238,0.056c0.29-0.156,0.636-0.468,0.636-1.064v-18.183
	c0-2.762,2.238-5,5-5h45.423c2.762,0,5,2.238,5,5s-2.238,5-5,5h-40.423v13.183c0,4.131-2.26,7.912-5.896,9.87
	c-1.665,0.896-3.491,1.341-5.313,1.341c-2.155,0-4.304-0.623-6.173-1.856l-0.541-0.357c-6.389,16.301-16.645,30.658-29.626,41.955
	h16.795c36.317,0,65.863,29.591,65.863,65.964v166.044c0,2.762-2.238,5-5,5s-5-2.238-5-5V351.486h-42.805v125.172
	c0,2.762-2.238,5-5,5s-5-2.238-5-5V306.827c0-2.762,2.238-5,5-5s5,2.238,5,5v34.659h42.805v-30.872
	c0-30.858-25.061-55.964-55.863-55.964H306.95c-5.543,3.479-11.421,6.469-17.581,8.9l0.288,0.437
	c2.275,3.449,2.473,7.85,0.515,11.486s-5.739,5.896-9.87,5.896h-13.188v40.423c0,2.762-2.238,5-5,5s-5-2.238-5-5v-45.423
	c0-2.762,2.238-5,5-5h18.188c0.598,0,0.909-0.346,1.064-0.636c0.156-0.29,0.273-0.74-0.056-1.239l-30.807-46.684
	c-0.022-0.033-0.067-0.102-0.147-0.161c-0.08-0.06-0.194-0.11-0.356-0.11c-0.325,0-0.459,0.204-0.503,0.271l-27.021,40.946
	c0,0.001-0.001,0.002-0.002,0.002l-3.786,5.737c-0.329,0.498-0.212,0.948-0.056,1.238c0.156,0.29,0.467,0.636,1.064,0.636h18.183
	c2.761,0,5,2.238,5,5v45.423c0,2.762-2.239,5-5,5s-5-2.238-5-5v-40.423h-13.183c-4.13,0-7.913-2.259-9.87-5.896
	s-1.76-8.038,0.515-11.486l0.288-0.437c-6.16-2.432-12.037-5.423-17.58-8.9h-30.268c-30.803,0-55.863,25.105-55.863,55.964v30.872
	h42.805v-34.659c0-2.762,2.239-5,5-5s5,2.238,5,5v169.831c0,2.762-2.239,5-5,5s-5-2.238-5-5V351.486h-42.805v125.172
	c0,2.762-2.239,5-5,5s-5-2.238-5-5V346.491c0-0.002,0-0.003,0-0.005s0-0.003,0-0.005v-35.867c0-36.373,29.546-65.964,65.863-65.964
	h16.795c-12.982-11.297-23.238-25.654-29.627-41.955l-0.542,0.357c-1.869,1.233-4.018,1.856-6.173,1.856
	c-1.821,0-3.646-0.444-5.312-1.341c-3.637-1.958-5.896-5.739-5.896-9.87V180.51H91.604c-2.761,0-5-2.238-5-5s2.239-5,5-5h45.423
	C139.788,170.51,142.027,172.748,142.027,175.51z M158.503,129.739l37.59,24.807c2.983,1.968,4.764,5.276,4.764,8.85
	c0,3.574-1.781,6.883-4.765,8.852l-37.59,24.806c9.822,26.783,31.043,48.073,57.768,57.951l24.879-37.701
	c0.246-0.373,0.513-0.727,0.799-1.061c0.118-0.139,0.253-0.259,0.377-0.391c0.177-0.186,0.346-0.38,0.534-0.552
	c0.036-0.032,0.077-0.059,0.113-0.091c1.914-1.699,4.395-2.67,7.026-2.671c1.787,0,3.508,0.445,5.028,1.264
	c1.52,0.818,2.84,2.01,3.824,3.502l24.878,37.7c26.725-9.879,47.945-31.168,57.768-57.952l-37.59-24.806
	c-0.49-0.323-0.934-0.693-1.357-1.084c-2.15-1.988-3.408-4.778-3.409-7.766c0-2.234,0.696-4.364,1.946-6.128
	c0.75-1.059,1.7-1.985,2.819-2.724l37.59-24.806c-9.822-26.783-31.043-48.072-57.768-57.951l-24.88,37.701
	c-0.246,0.373-0.513,0.728-0.799,1.062c-2,2.34-4.925,3.703-8.052,3.703s-6.051-1.363-8.052-3.704
	c-0.286-0.334-0.553-0.688-0.799-1.062l-24.878-37.7C189.546,81.666,168.325,102.956,158.503,129.739z M439.108,490H60.892
	c-2.761,0-5,2.238-5,5s2.239,5,5,5h378.216c2.762,0,5-2.238,5-5S441.87,490,439.108,490z M42.478,490h-3.813c-2.761,0-5,2.238-5,5
	s2.239,5,5,5h3.813c2.761,0,5-2.238,5-5S45.239,490,42.478,490z M461.335,490h-3.813c-2.762,0-5,2.238-5,5s2.238,5,5,5h3.813
	c2.762,0,5-2.238,5-5S464.097,490,461.335,490z"/>
</svg>
